<svg width="24" height="25" viewBox="0 0 24 25" fill="none" xmlns="http://www.w3.org/2000/svg">
<path d="M12 3.25C11.2729 3.2503 10.5531 3.39448 9.88208 3.67423C9.21101 3.95398 8.60193 4.36378 8.08997 4.88C7.04985 5.92394 6.46404 7.33636 6.45996 8.81C6.45996 12.6 11.46 18.19 11.63 18.42C11.6799 18.4687 11.7373 18.5092 11.8 18.54C11.8692 18.5543 11.9407 18.5543 12.01 18.54C12.0758 18.555 12.1441 18.555 12.21 18.54C12.2756 18.5145 12.334 18.4733 12.38 18.42C12.59 18.19 17.54 12.6 17.54 8.81C17.5396 7.33757 16.9573 5.92495 15.92 4.88C15.4062 4.36348 14.7953 3.95357 14.1226 3.67384C13.4499 3.39412 12.7285 3.25008 12 3.25V3.25Z" stroke="#333435" stroke-width="1.5" stroke-linecap="round" stroke-linejoin="round"/>
<path d="M12.2899 10.7501C12.8011 10.6584 13.2565 10.3715 13.5599 9.95011C13.7133 9.74448 13.8241 9.51033 13.8859 9.26136C13.9477 9.01239 13.9593 8.7536 13.9199 8.50012C13.8788 8.24668 13.7878 8.00393 13.6522 7.78592C13.5166 7.56792 13.3391 7.379 13.1299 7.23011C12.7127 6.92379 12.1929 6.79117 11.6799 6.86012C11.1688 6.95179 10.7133 7.23868 10.4099 7.66011C10.1046 8.08142 9.97541 8.60515 10.0499 9.12011C10.144 9.62761 10.4307 10.0791 10.8499 10.3801C11.2645 10.6839 11.7802 10.8164 12.2899 10.7501V10.7501Z" stroke="#333435" stroke-width="1.5" stroke-linecap="round" stroke-linejoin="round"/>
<path d="M15.5102 14.1999H18.4402C18.6634 14.1955 18.8817 14.2659 19.0602 14.3999C19.2425 14.5291 19.3763 14.7157 19.4402 14.9299L21.1902 20.3799C21.2559 20.5378 21.28 20.71 21.2602 20.8799C21.2367 21.0468 21.1713 21.205 21.0702 21.3399C20.9725 21.4768 20.8418 21.5869 20.6902 21.6599C20.5331 21.7292 20.3617 21.7601 20.1902 21.7499H3.7802C3.61606 21.7491 3.45464 21.7079 3.3102 21.6299C3.16173 21.5609 3.03411 21.454 2.94021 21.3199C2.84065 21.1879 2.77536 21.0333 2.7502 20.8699C2.70957 20.7091 2.70957 20.5407 2.7502 20.3799L4.5002 14.9299C4.57203 14.7197 4.70421 14.5354 4.88021 14.3999C5.06106 14.2704 5.27777 14.2005 5.5002 14.1999H8.5002" stroke="#333435" stroke-width="1.5" stroke-linecap="round" stroke-linejoin="round"/>
</svg>
